<?xml version="1.0" encoding="UTF-8"?>
<svg xmlns="http://www.w3.org/2000/svg" xmlns:xlink="http://www.w3.org/1999/xlink" width="46px" height="46px" viewBox="0 0 46 46" version="1.1">
<g id="surface1">
<path style=" stroke:none;fill-rule:nonzero;fill:rgb(0%,0%,0%);fill-opacity:1;" d="M 45.929688 17.71875 C 45.765625 17.203125 45.320312 16.828125 44.785156 16.753906 L 30.609375 14.691406 L 24.273438 1.847656 C 24.03125 1.363281 23.539062 1.054688 23 1.054688 C 22.460938 1.054688 21.96875 1.363281 21.730469 1.847656 L 15.390625 14.691406 L 1.214844 16.753906 C 0.679688 16.828125 0.234375 17.203125 0.0703125 17.71875 C -0.0976562 18.230469 0.0429688 18.792969 0.429688 19.171875 L 10.6875 29.167969 L 8.265625 43.285156 C 8.171875 43.816406 8.390625 44.355469 8.828125 44.671875 C 9.265625 44.988281 9.84375 45.03125 10.320312 44.78125 L 23 38.117188 L 35.679688 44.78125 C 35.886719 44.890625 36.113281 44.941406 36.339844 44.941406 C 36.339844 44.941406 36.339844 44.941406 36.34375 44.941406 C 37.125 44.941406 37.761719 44.308594 37.761719 43.523438 C 37.761719 43.40625 37.746094 43.289062 37.71875 43.179688 L 35.316406 29.167969 L 45.570312 19.171875 C 45.957031 18.792969 46.097656 18.230469 45.929688 17.71875 Z M 32.800781 27.660156 C 32.46875 27.984375 32.316406 28.453125 32.394531 28.914062 L 34.457031 40.933594 L 23.660156 35.257812 C 23.246094 35.042969 22.753906 35.042969 22.339844 35.257812 L 11.546875 40.933594 L 13.605469 28.914062 C 13.6875 28.453125 13.535156 27.984375 13.199219 27.660156 L 4.464844 19.144531 L 16.535156 17.390625 C 16.996094 17.324219 17.398438 17.035156 17.601562 16.613281 L 23 5.679688 L 28.398438 16.613281 C 28.605469 17.03125 29.003906 17.324219 29.464844 17.390625 L 41.535156 19.144531 Z M 32.800781 27.660156 "/>
</g>
</svg>
